<?xml version="1.0" standalone="no"?>
<!DOCTYPE svg PUBLIC "-//W3C//DTD SVG 20010904//EN"
 "http://www.w3.org/TR/2001/REC-SVG-20010904/DTD/svg10.dtd">
<svg version="1.0" xmlns="http://www.w3.org/2000/svg"
 width="1520.000000pt" height="700.000000pt" viewBox="0 0 1520.000000 700.000000"
 preserveAspectRatio="xMidYMid meet">
<metadata>
Created by potrace 1.16, written by Peter Selinger 2001-2019
</metadata>
<g transform="translate(0.000000,700.000000) scale(0.100000,-0.100000)"
fill="#000000" stroke="none">
<path d="M5870 6859 c-70 -11 -131 -26 -140 -34 -9 -8 -20 -12 -23 -8 -4 3 -7
3 -7 -1 0 -11 23 -32 61 -55 39 -24 124 -27 249 -10 41 6 102 14 135 18 70 9
130 39 130 66 0 45 -195 56 -405 24z"/>
<path d="M14950 6724 c-336 -27 -1682 -128 -2185 -164 -370 -26 -645 -48 -684
-56 -26 -6 -28 -8 -16 -21 8 -7 30 -20 49 -28 19 -8 37 -19 41 -24 3 -6 11 -8
18 -5 7 2 25 -9 40 -26 15 -16 24 -30 20 -30 -5 0 -2 -4 6 -9 8 -5 15 -19 16
-32 1 -13 7 -25 13 -27 8 -2 10 3 7 15 -3 10 0 7 7 -6 10 -20 10 -25 0 -29
-10 -3 -10 -7 0 -20 10 -12 10 -14 0 -8 -10 6 -10 2 0 -18 6 -14 15 -26 19
-26 5 0 6 -7 3 -15 -4 -8 -10 -12 -15 -9 -5 3 -9 1 -9 -5 0 -5 5 -11 11 -13 8
-3 14 -18 18 -49 1 -3 56 -12 123 -19 103 -11 125 -17 143 -36 38 -41 149 -59
160 -26 7 23 46 42 86 42 19 0 37 8 48 21 15 19 31 22 113 27 74 3 95 8 91 18
-6 17 36 73 69 90 15 8 48 14 73 14 26 0 56 5 68 12 19 10 20 9 10 -3 -10 -13
-8 -15 15 -13 15 1 27 3 27 4 0 7 82 6 97 -2 9 -4 19 -4 22 1 4 5 14 8 24 6 9
-1 27 2 40 6 12 5 22 5 22 1 0 -4 16 -7 35 -8 19 0 32 2 30 6 -2 4 2 7 10 7 8
0 15 -3 15 -7 0 -9 65 -4 82 6 8 5 8 1 -2 -11 -13 -16 -13 -18 0 -10 8 5 32 9
53 10 21 1 42 7 47 14 5 9 10 10 14 3 4 -7 52 -9 131 -7 69 1 125 -1 125 -6 0
-5 5 -9 11 -9 5 0 7 5 3 12 -4 6 3 4 16 -5 17 -12 28 -13 42 -6 13 7 18 6 19
-3 0 -7 4 -4 9 7 5 11 9 14 9 6 1 -7 7 -11 16 -7 19 7 47 -3 39 -15 -3 -5 2
-6 10 -3 9 3 14 10 11 14 -3 5 23 8 57 6 35 -1 69 2 76 8 11 8 13 5 10 -10 -2
-16 3 -19 32 -19 29 0 35 3 32 20 -2 18 -2 18 8 3 6 -10 16 -18 23 -18 8 0 6
4 -3 11 -12 9 -13 10 0 7 17 -5 15 -106 -3 -125 -16 -16 -90 -5 -83 12 2 7 -2
23 -11 35 -11 16 -23 21 -44 18 -16 -3 -29 -1 -29 4 0 4 -7 8 -15 8 -19 0 -38
-37 -39 -75 -1 -27 -4 -30 -51 -38 -88 -15 -95 -45 -10 -48 29 -1 19 -4 -40
-14 -44 -6 -84 -10 -89 -7 -4 2 -48 4 -96 3 -86 -2 -89 -1 -125 30 -27 24 -46
32 -71 32 -58 -2 -60 -3 -25 -18 27 -12 31 -18 21 -29 -6 -8 -21 -17 -33 -19
-22 -4 -22 -4 1 -6 12 0 33 -7 45 -14 12 -8 29 -13 37 -12 8 0 54 5 102 9 74
7 92 6 113 -8 31 -20 104 -21 152 -1 45 19 97 6 130 -34 26 -30 27 -45 12 -91
-15 -40 -57 -60 -136 -61 -32 0 -67 -4 -78 -9 -19 -7 -19 -8 -2 -15 13 -5 15
-11 7 -20 -8 -10 -6 -15 9 -20 12 -3 26 -3 33 1 8 5 9 2 5 -9 -4 -10 -1 -17 6
-18 43 -4 184 4 197 11 12 7 15 30 14 127 -2 151 6 180 52 189 27 5 32 9 24
19 -8 9 -8 15 0 20 15 9 32 -5 26 -21 -4 -10 3 -14 22 -15 l27 -1 -30 -13
c-18 -9 -23 -14 -13 -15 9 0 21 -8 27 -17 9 -16 11 -16 28 -1 23 21 79 35 168
44 62 6 124 23 87 24 -7 0 -11 3 -9 8 3 4 -23 8 -58 10 -51 3 -65 0 -73 -14
-7 -13 -16 -15 -42 -9 l-33 7 22 17 c18 14 21 25 20 69 -2 36 -6 52 -16 52 -7
0 -13 5 -13 11 0 5 4 8 9 5 5 -4 12 0 14 6 4 10 6 10 6 1 1 -7 6 -13 12 -13 5
0 7 6 3 13 -4 6 5 1 21 -13 28 -25 28 -25 22 -2 -3 12 -1 20 4 16 5 -3 9 -12
9 -20 0 -8 5 -14 10 -14 6 0 10 8 10 18 0 10 3 13 8 6 18 -28 122 -47 122 -22
0 5 5 6 10 3 8 -5 7 -11 -1 -21 -10 -12 -9 -13 5 -8 9 3 16 10 16 15 0 4 7 6
15 3 8 -4 12 -11 9 -18 -3 -6 1 -3 9 7 8 9 18 17 23 17 4 0 3 -5 -4 -12 -17
-17 -15 -33 2 -19 11 9 16 9 22 0 4 -7 3 -10 -2 -6 -13 8 -47 -20 -40 -32 4
-5 -2 -14 -11 -20 -10 -5 -14 -13 -10 -18 8 -8 16 0 44 44 10 16 11 15 5 -7
-7 -31 -31 -51 -54 -44 -9 3 -19 0 -23 -6 -3 -5 -16 -11 -28 -11 -43 -3 90
-17 173 -18 47 -1 104 -6 128 -10 l42 -8 0 353 0 354 -47 -1 c-27 -1 -118 -8
-203 -15z"/>
<path d="M5034 6578 c-134 -10 -295 -56 -357 -100 -17 -12 -37 -23 -44 -24
-16 -3 -81 -56 -82 -67 -1 -5 -15 -22 -31 -39 -32 -31 -52 -66 -65 -108 -6
-20 -5 -23 6 -12 7 6 24 12 38 13 l26 1 -25 7 c-21 6 -22 8 -7 14 9 3 31 4 49
0 24 -5 29 -3 23 7 -5 8 -4 11 2 7 6 -4 27 2 48 13 39 20 52 20 40 1 -3 -6
-15 -11 -26 -11 -10 0 -19 -4 -19 -10 0 -5 -9 -10 -21 -10 -15 0 -19 -4 -15
-16 4 -11 -1 -18 -14 -21 -11 -3 -17 -9 -14 -14 3 -5 0 -9 -6 -9 -6 0 -8 -4
-5 -10 4 -6 -14 -10 -46 -10 -29 0 -49 -3 -46 -6 3 -4 -5 -15 -18 -26 -14 -11
-25 -25 -25 -32 0 -6 -18 -59 -40 -116 -22 -58 -40 -115 -40 -127 0 -12 -5
-25 -11 -29 -6 -3 -9 -24 -7 -45 l4 -39 -39 0 c-26 0 -45 -7 -61 -24 -23 -22
-24 -27 -19 -132 3 -60 10 -117 15 -126 17 -34 27 -112 16 -126 -30 -36 46
-90 100 -71 26 10 25 11 11 -29 -7 -22 -7 -36 1 -51 9 -18 8 -21 -7 -22 -10 0
-13 -3 -6 -5 7 -3 21 0 32 6 17 9 20 8 15 -5 -4 -8 -12 -15 -20 -15 -8 0 -14
-4 -14 -9 0 -17 28 -19 49 -5 12 9 29 14 39 12 12 -3 6 -10 -22 -24 -51 -25
-55 -40 -11 -41 19 0 35 4 35 9 0 6 -9 8 -20 5 -11 -3 -20 -1 -20 4 0 5 17 10
38 11 52 2 55 2 77 17 12 7 13 10 4 8 -9 -3 -16 1 -16 9 0 7 4 11 8 9 3 -3 13
2 20 11 10 12 10 15 -2 12 -8 -2 -13 2 -12 9 2 7 -4 10 -12 7 -8 -4 -15 -1
-15 4 0 6 14 9 30 7 17 -2 28 0 25 4 -7 12 22 34 35 26 7 -4 9 -19 5 -36 -6
-24 -3 -30 17 -38 15 -5 26 -5 30 3 5 7 8 7 8 1 0 -6 -6 -17 -12 -24 -10 -11
-10 -13 0 -7 6 4 12 3 12 -1 0 -5 15 -9 33 -9 29 0 87 -38 87 -58 0 -10 39
-46 50 -46 6 0 19 -9 30 -20 11 -11 26 -17 35 -14 8 4 15 1 15 -6 0 -6 5 -8
10 -5 6 3 10 -3 10 -14 0 -12 6 -21 14 -21 9 0 12 7 9 20 -4 17 0 20 23 20 20
0 25 -3 15 -9 -9 -6 -10 -11 -2 -15 18 -12 12 -44 -11 -61 l-23 -15 23 -6 c12
-4 22 -11 22 -18 0 -6 6 0 13 13 15 29 37 39 37 16 0 -12 6 -10 24 10 14 15
29 24 35 21 5 -3 7 3 4 14 -6 23 -20 25 -42 6 -22 -19 -66 -32 -56 -17 4 7 1
18 -5 26 -8 10 -9 15 -2 15 6 0 15 -7 20 -16 7 -13 11 -14 17 -3 5 7 4 14 -3
17 -7 2 -9 9 -6 14 4 7 2 8 -4 4 -8 -4 -16 4 -23 21 -7 17 -13 23 -16 15 -4
-10 -8 -8 -18 5 -10 13 -10 20 -2 25 7 4 -1 10 -20 14 -56 11 -37 26 27 21 61
-4 68 1 61 46 -1 9 119 9 171 1 21 -4 35 -10 33 -15 -13 -20 29 -23 210 -16
33 2 76 0 95 -4 35 -8 61 8 37 23 -6 4 -9 10 -5 13 3 4 16 -3 27 -14 19 -19
21 -19 21 -3 0 14 2 15 10 2 6 -10 10 -11 10 -2 0 6 7 12 15 12 9 0 15 9 15
25 0 17 4 23 14 19 7 -3 23 7 34 21 12 15 26 24 32 20 7 -4 9 2 4 19 -3 14 -3
26 1 26 14 0 36 -31 33 -47 -1 -10 1 -24 5 -30 6 -9 2 -13 -12 -13 -12 0 -21
-5 -21 -10 0 -12 53 -1 58 11 2 5 12 4 22 -1 12 -7 28 -7 45 0 15 6 31 7 37 4
7 -4 8 -2 4 4 -4 7 -16 12 -27 12 -10 0 -19 5 -19 10 0 13 26 13 53 -1 19 -9
18 -7 -3 10 l-25 20 25 10 c22 8 22 10 5 11 l-20 1 20 9 c11 5 16 9 11 9 -5 1
-1 10 9 21 10 11 22 17 26 14 5 -3 9 4 9 15 0 12 7 21 15 21 8 0 15 -4 15 -10
0 -5 9 -10 20 -10 23 0 27 28 5 36 -8 4 -15 14 -15 23 0 14 2 14 10 1 6 -10
10 -11 10 -2 0 6 8 12 18 12 15 1 15 2 2 10 -15 8 -17 37 -7 110 2 14 5 34 6
45 2 19 2 19 15 3 17 -23 26 -23 26 2 0 11 5 20 10 20 6 0 10 8 10 18 0 26 11
34 26 21 19 -15 44 -4 44 20 0 18 -29 41 -72 57 -10 3 -18 12 -18 19 0 7 -7
16 -16 19 -8 3 -12 11 -9 16 4 6 -1 23 -11 38 -10 15 -18 32 -19 38 0 17 -57
67 -78 69 -9 1 -24 10 -31 21 -12 15 -17 16 -27 7 -7 -7 -9 -16 -5 -20 4 -4
11 -1 16 7 7 12 11 7 16 -18 5 -25 11 -32 23 -27 10 4 8 -2 -6 -15 -13 -11
-23 -25 -23 -30 0 -5 -7 -7 -15 -3 -9 3 -15 13 -13 22 4 27 -11 44 -28 30 -16
-13 -18 -52 -4 -79 8 -15 5 -19 -23 -23 -17 -3 -88 0 -157 6 -103 10 -117 13
-80 18 33 4 18 7 -60 9 -158 6 -270 0 -304 -14 -34 -14 -86 -5 -141 25 -30 17
-178 43 -310 55 -54 5 -65 8 -47 15 31 12 27 20 -9 17 -20 -2 -34 2 -37 11 -3
8 0 11 7 7 6 -4 11 -2 11 4 0 6 4 8 10 5 5 -3 12 6 16 20 3 14 14 31 23 38 9
6 17 25 18 40 1 23 -2 26 -13 16 -11 -9 -14 -8 -14 6 0 10 -7 27 -17 37 -15
17 -15 18 4 18 15 0 20 7 20 30 0 29 34 69 61 70 6 0 12 5 12 10 0 15 -11 12
-32 -7 -10 -9 -21 -13 -25 -9 -11 10 11 61 27 62 8 1 22 2 30 3 9 1 4 8 -13
17 l-29 16 38 33 c21 19 41 30 44 25 4 -7 18 -6 39 1 17 6 35 9 38 5 7 -6 70
44 65 52 -6 9 22 21 33 14 14 -9 26 -9 60 1 71 20 121 24 134 10 7 -7 17 -10
24 -6 16 10 60 14 77 6 8 -3 24 -7 35 -8 11 -1 36 -6 55 -10 19 -3 44 -8 55
-10 20 -3 40 -10 110 -41 22 -10 51 -19 64 -21 13 -2 44 -16 68 -31 24 -15 60
-37 79 -48 20 -12 53 -38 75 -58 37 -36 56 -32 23 5 -15 16 -14 17 5 12 11 -3
23 -13 26 -22 5 -18 64 -51 89 -51 8 0 24 -9 37 -20 26 -21 19 -26 -12 -9 -11
5 -28 9 -37 7 -13 -3 -10 -8 13 -20 21 -11 39 -13 60 -7 21 6 34 4 47 -8 10
-8 15 -19 13 -23 -3 -4 4 -10 15 -13 19 -5 20 -12 17 -114 -5 -137 8 -167 63
-156 45 10 113 8 223 -8 77 -11 92 -10 122 4 18 9 61 22 94 28 53 11 69 11
131 -5 94 -25 154 -16 256 35 75 39 86 41 226 53 154 14 165 17 228 76 37 35
108 70 141 70 11 0 55 7 97 16 102 21 134 49 130 114 -5 76 6 75 -480 40 -233
-17 -454 -32 -493 -35 -38 -3 -131 -9 -205 -15 -74 -5 -214 -14 -310 -20 -96
-6 -185 -13 -198 -16 -12 -2 -21 -1 -20 3 2 5 -11 35 -27 68 -36 71 -112 151
-177 185 -27 13 -48 30 -48 36 0 21 -47 43 -157 75 -59 17 -129 39 -154 49
-39 16 -179 38 -201 32 -5 -1 -8 3 -8 8 0 12 -213 11 -366 -2z m170 -894 c9
-3 16 -12 16 -20 0 -47 25 -120 52 -147 18 -20 25 -33 17 -36 -6 -2 -16 4 -21
13 -17 30 -61 64 -75 59 -11 -4 -10 -10 8 -29 12 -13 18 -28 14 -35 -5 -7 -4
-10 2 -6 15 9 21 -13 12 -48 -4 -16 -7 -26 -8 -21 0 4 -17 -4 -37 -19 -31 -24
-39 -26 -63 -16 -19 9 -35 9 -54 2 -22 -9 -27 -8 -27 4 0 9 -5 24 -11 34 -15
22 -4 70 17 78 9 3 28 17 42 30 21 20 24 26 12 33 -8 5 -11 12 -7 16 4 4 0 15
-9 25 -14 15 -14 21 0 53 14 34 18 36 60 36 24 0 51 -3 60 -6z m138 -77 c-3
-17 114 -68 201 -86 45 -10 73 -10 129 -1 49 9 66 15 57 21 -9 6 -4 7 16 3 39
-9 43 -13 25 -27 -8 -7 -15 -19 -15 -27 0 -27 -47 -40 -152 -40 -143 0 -196
13 -249 62 -44 40 -71 96 -60 125 6 14 9 14 29 0 12 -8 21 -21 19 -30z m-810
20 c21 -22 50 -34 93 -41 66 -11 198 -9 228 3 16 6 39 11 53 11 22 0 23 -2 12
-21 -7 -11 -33 -30 -58 -41 -38 -18 -58 -20 -136 -15 -50 3 -119 13 -152 22
-52 15 -63 22 -76 50 -9 18 -16 36 -16 39 0 11 39 6 52 -7z m1332 -112 c-4 -8
-1 -15 5 -15 6 0 11 -7 11 -15 0 -8 5 -15 10 -15 6 0 10 -4 10 -10 0 -5 -7
-10 -17 -10 -9 0 -13 -3 -10 -7 4 -3 0 -14 -9 -24 -10 -11 -12 -19 -5 -24 16
-10 13 -35 -4 -35 -12 0 -14 -7 -10 -27 6 -26 5 -26 -8 -10 -8 9 -17 17 -20
17 -3 0 -6 -8 -6 -17 -2 -48 -5 -54 -23 -50 -20 6 -24 -3 -7 -20 9 -9 6 -10
-10 -6 -13 3 -25 12 -28 19 -3 8 -11 14 -18 14 -15 0 -28 -27 -19 -41 3 -5 -2
-9 -10 -9 -27 0 -61 17 -88 45 -16 15 -28 24 -28 20 0 -5 -9 0 -20 10 -11 10
-20 22 -20 28 0 11 -61 67 -73 67 -5 0 -5 5 -2 11 5 7 56 8 161 3 l153 -7 11
28 c9 24 12 26 27 14 15 -12 16 -12 10 4 -4 11 1 29 15 48 24 32 30 36 22 14z
m-1156 -45 c66 0 82 -3 82 -15 0 -8 -7 -15 -15 -15 -8 0 -15 -4 -15 -10 0 -5
-7 -10 -15 -10 -8 0 -23 -9 -33 -21 -11 -11 -30 -21 -44 -23 -13 -1 -29 -6
-36 -10 -7 -4 -15 -1 -18 8 -3 9 -10 13 -16 10 -5 -3 -7 -12 -4 -20 8 -20 -10
-17 -20 4 -4 9 -7 20 -6 23 1 4 -6 5 -16 3 -21 -6 -43 27 -35 54 6 25 25 31
73 26 19 -2 72 -3 118 -4z m719 -102 c44 -33 80 -80 75 -100 -3 -18 -22 -25
-22 -9 0 4 -11 6 -25 3 -28 -5 -30 -10 -11 -34 15 -21 27 -14 19 10 -5 13 -3
14 6 6 10 -9 19 -9 39 2 26 13 42 11 42 -7 0 -5 -7 -9 -15 -9 -9 0 -15 -9 -15
-22 0 -13 -5 -30 -10 -38 -8 -13 -10 -12 -10 3 0 10 -4 16 -9 12 -6 -3 -14 3
-20 12 -6 10 -11 14 -11 9 0 -5 -6 -3 -14 3 -10 9 -15 8 -20 -4 -3 -8 -10 -15
-16 -15 -6 0 -9 4 -6 8 2 4 1 14 -5 22 -6 11 -9 7 -9 -15 -1 -27 -2 -28 -14
-13 -10 14 -15 15 -25 5 -10 -9 -15 -8 -27 7 -9 13 -14 15 -14 6 0 -9 -5 -8
-20 5 -11 10 -17 22 -14 26 3 5 1 9 -3 9 -5 0 -14 -9 -21 -20 -7 -11 -17 -20
-24 -20 -6 0 -4 7 5 18 22 25 23 49 1 27 -9 -9 -24 -13 -35 -10 -12 4 -21 1
-25 -9 -3 -9 -11 -16 -17 -16 -6 0 -8 3 -4 6 3 4 0 13 -8 21 -12 12 -11 17 6
34 17 17 25 19 50 10 16 -5 29 -7 29 -4 0 3 7 -1 16 -8 14 -11 18 -11 29 4 7
9 20 17 30 17 10 0 16 3 13 6 -3 3 4 16 16 29 11 13 27 30 34 39 17 21 22 20
59 -6z"/>
<path d="M11295 6469 c-421 -32 -1220 -84 -1850 -119 -688 -39 -1092 -73
-1197 -101 -21 -5 -38 -11 -38 -13 0 -1 18 -22 40 -46 22 -24 43 -55 47 -69
12 -50 32 -77 101 -143 15 -15 22 -33 22 -60 0 -43 15 -78 38 -92 13 -8 13
-10 1 -20 -8 -6 -25 -24 -37 -40 l-22 -29 22 -24 c13 -14 21 -25 18 -26 -7 -3
22 -42 38 -51 13 -8 35 33 36 68 1 16 10 19 76 20 109 3 150 18 185 66 35 48
68 60 95 35 10 -9 23 -14 28 -11 5 3 18 -5 29 -17 23 -25 36 -67 22 -67 -20 0
54 -78 102 -110 28 -18 48 -38 46 -45 -5 -12 20 -25 115 -59 44 -16 48 -16 75
1 35 22 43 33 43 61 0 13 17 38 42 61 38 36 41 42 31 64 -10 21 -21 26 -72 32
-34 4 -61 11 -61 16 0 5 -28 9 -62 9 -84 0 -105 14 -56 35 21 8 42 15 47 15 5
0 12 7 15 16 5 13 9 14 20 5 16 -13 71 3 62 18 -10 15 33 44 66 45 24 1 36 8
49 31 10 17 18 37 18 46 2 28 45 42 110 36 67 -5 86 -16 95 -52 6 -23 11 -25
61 -25 41 0 72 8 122 33 84 40 159 42 225 5 41 -22 60 -53 41 -67 -4 -3 -14
-16 -20 -28 -7 -13 -19 -33 -25 -44 -12 -20 -5 -33 17 -30 14 2 40 -37 42 -63
0 -16 6 -32 13 -36 10 -6 9 -9 0 -12 -10 -3 -10 -9 -3 -22 10 -17 10 -17 18 0
5 11 9 23 9 27 1 4 8 12 16 17 8 5 11 10 6 10 -5 0 -1 9 9 20 10 11 23 20 30
20 14 0 42 31 40 45 0 6 -4 16 -9 24 -5 8 -4 16 5 22 11 7 10 9 -3 9 -11 0
-15 5 -12 15 4 8 13 15 22 15 32 0 -7 15 -50 19 -5 1 -8 9 -8 20 0 14 10 20
46 25 26 3 60 6 76 6 15 0 46 11 67 24 21 14 65 30 98 37 51 10 63 10 93 -5
57 -27 81 -50 83 -80 1 -18 13 -37 29 -49 27 -20 29 -20 190 -4 101 10 246 16
383 16 224 -1 310 4 378 22 34 9 37 13 37 44 0 19 -5 35 -11 35 -5 0 -7 5 -4
11 11 16 -26 38 -66 39 -46 0 -124 34 -144 63 -8 12 -15 36 -15 54 0 51 27 63
141 63 127 0 129 2 129 138 0 90 -2 102 -19 112 -25 13 -96 11 -376 -11z"/>
<path d="M13353 5924 c-18 -9 -35 -25 -38 -35 -4 -10 -10 -19 -14 -19 -19 0
-81 -73 -81 -95 0 -18 -5 -25 -20 -25 -13 0 -18 5 -14 15 4 9 0 15 -10 15 -9
0 -16 8 -16 21 0 11 -4 17 -10 14 -6 -4 -9 -14 -6 -23 3 -10 -3 -35 -14 -57
-16 -33 -17 -42 -5 -50 16 -13 356 -11 400 2 17 5 30 16 30 24 0 8 4 19 8 26
4 7 5 24 1 38 -4 15 -2 25 5 25 21 0 11 19 -23 39 -19 12 -37 32 -40 45 -10
41 -103 65 -153 40z"/>
<path d="M12256 5864 c-19 -14 -109 -13 -173 1 -18 4 -44 4 -58 1 -21 -5 -25
-12 -25 -41 0 -36 12 -43 40 -25 9 5 19 5 26 -1 7 -6 17 -2 29 11 16 18 18 18
43 2 15 -10 46 -17 72 -17 42 0 45 -2 48 -28 4 -29 20 -32 32 -6 4 8 15 28 24
46 16 31 16 32 -12 51 -24 17 -30 18 -46 6z"/>
<path d="M10445 5843 c-25 -6 -44 -23 -26 -23 9 0 11 -9 6 -29 -3 -17 -2 -32
5 -36 5 -3 8 -10 5 -15 -3 -5 -1 -11 5 -15 6 -4 8 -10 5 -15 -16 -26 70 -98
108 -92 10 2 34 -2 54 -9 68 -22 366 -17 405 7 5 4 -1 12 -14 18 -12 6 -28 27
-34 46 -9 26 -19 36 -41 42 -17 4 -36 15 -43 23 -16 19 -42 19 -104 0 -81 -25
-136 -20 -185 15 -34 25 -41 36 -39 58 3 26 1 27 -42 29 -25 0 -54 -1 -65 -4z"/>
<path d="M7645 5768 c-22 -5 -45 -15 -51 -23 -16 -22 -8 -73 19 -114 32 -49
62 -57 91 -26 25 27 61 134 48 147 -17 17 -68 24 -107 16z"/>
<path d="M11435 5762 c-3 -4 -20 -7 -38 -8 -205 -13 -228 -20 -270 -86 -10
-17 -26 -28 -40 -28 -12 0 -28 -4 -36 -9 -8 -5 13 -9 56 -9 38 -1 74 -2 79 -3
15 -4 59 18 73 35 11 13 11 19 1 31 -23 28 -6 32 125 26 41 -2 144 3 165 9 8
2 -52 32 -81 40 -15 5 -30 5 -34 2z"/>
<path d="M15119 5626 c-2 -2 -87 -7 -189 -10 -102 -4 -196 -9 -210 -11 -14 -2
-99 -7 -190 -10 -91 -3 -192 -8 -225 -10 -33 -2 -123 -7 -200 -10 -77 -3 -180
-8 -230 -10 -107 -6 -479 -20 -1075 -41 -435 -15 -696 -29 -757 -40 -33 -6
-42 -17 -22 -29 6 -4 35 -40 65 -81 30 -41 59 -72 65 -69 5 4 9 -1 9 -9 0 -8
9 -22 21 -30 12 -8 18 -19 15 -25 -4 -5 2 -14 11 -20 10 -5 15 -13 11 -16 -4
-4 0 -14 8 -22 8 -8 12 -19 9 -24 -4 -5 1 -9 9 -9 9 0 36 -10 60 -22 54 -26
71 -59 69 -141 0 -53 1 -58 25 -64 20 -5 271 1 497 12 28 1 90 3 139 4 l88 1
-4 25 c-3 14 0 29 7 35 7 6 10 21 8 34 -3 13 0 27 6 30 5 4 7 14 4 23 -4 9 -2
14 3 11 5 -3 14 0 21 7 10 11 10 15 0 18 -12 5 19 11 37 8 5 -1 13 4 17 11 7
10 9 10 9 -2 0 -12 16 -15 79 -16 54 0 78 3 74 10 -5 7 -2 7 8 0 8 -6 30 -10
49 -8 19 1 47 -4 62 -12 27 -14 48 -15 58 -2 3 3 17 4 32 1 19 -4 25 -10 21
-22 -4 -11 -1 -10 10 4 16 20 16 20 18 -5 l1 -25 8 25 c9 29 19 13 23 -35 2
-27 -1 -30 -25 -27 -31 4 -39 -14 -10 -21 13 -4 11 -5 -5 -6 -13 0 -23 -7 -23
-14 0 -6 -14 -18 -32 -26 l-31 -14 48 -12 c52 -14 67 -31 75 -85 4 -31 9 -35
39 -38 40 -4 60 11 42 32 -18 21 -8 96 15 114 14 10 15 16 6 19 -19 7 -45 73
-43 111 1 17 -2 32 -7 32 -14 0 2 75 22 105 27 42 57 47 251 43 141 -3 187 -7
210 -19 26 -14 64 -16 283 -11 182 3 256 2 265 -7 7 -7 79 -11 229 -11 l218 0
0 205 0 205 -38 0 c-21 0 -41 -2 -43 -4z"/>
<path d="M6152 5567 c-12 -13 -22 -27 -22 -33 -1 -5 -18 -21 -40 -36 l-39 -27
14 -35 c8 -20 15 -46 15 -58 0 -33 14 -50 33 -42 20 7 22 35 5 52 -12 12 -13
17 -18 57 -4 37 0 47 15 41 9 -3 15 0 15 8 0 19 23 36 37 28 7 -4 15 -27 19
-50 6 -37 4 -42 -10 -36 -17 7 -18 -11 -1 -50 11 -26 -6 -69 -33 -81 -12 -5
-22 -16 -22 -23 0 -7 4 -11 9 -8 5 4 5 -10 1 -31 -10 -43 -45 -75 -78 -70 -25
5 -61 -22 -55 -40 3 -7 -4 -13 -14 -14 -17 0 -17 -1 1 -8 25 -10 29 -37 10
-73 -8 -16 -12 -32 -10 -37 9 -15 -15 -71 -35 -82 -25 -13 -24 -23 4 -38 31
-16 139 -146 165 -198 27 -51 38 -60 92 -68 39 -6 48 -3 65 15 24 27 26 41 13
106 -11 57 2 114 27 114 6 0 20 9 29 19 28 30 94 41 256 41 l151 0 77 40 c60
31 92 41 147 46 90 7 224 -16 302 -52 42 -20 81 -29 143 -33 89 -7 123 -20
176 -68 42 -39 58 -84 56 -164 -1 -81 0 -83 123 -115 72 -18 83 -19 111 -6 48
22 58 47 62 157 l3 100 -32 39 c-37 44 -43 100 -16 153 14 25 15 52 9 164 l-7
133 -31 18 c-29 17 -46 17 -230 8 -388 -19 -882 -40 -1084 -46 -113 -3 -249
-9 -302 -13 -54 -4 -98 -4 -98 0 0 4 9 27 20 52 11 25 22 69 24 99 4 62 13 88
31 88 7 0 18 7 25 15 10 12 10 18 0 30 -10 12 -10 15 1 15 10 0 10 3 1 12 -10
10 -15 10 -20 1 -8 -12 -36 -12 -48 0 -12 11 -19 8 -42 -16z"/>
<path d="M7694 5543 c5 -11 -4 -17 -25 -15 -3 0 -10 -8 -17 -18 -10 -17 -8
-22 13 -36 20 -13 40 -15 86 -11 72 6 109 28 109 62 0 28 1 28 -98 30 -57 1
-72 -2 -68 -12z"/>
<path d="M11405 5479 c-309 -17 -1567 -68 -2060 -84 -99 -3 -209 -8 -245 -10
-36 -2 -128 -7 -205 -10 -426 -17 -676 -40 -675 -63 0 -4 17 -23 36 -42 20
-19 43 -47 52 -62 9 -16 20 -28 24 -28 4 0 8 -7 8 -15 0 -8 5 -15 10 -15 6 0
10 -7 10 -15 0 -8 4 -15 9 -15 11 0 81 -109 81 -127 0 -8 4 -12 8 -9 4 2 8 -7
7 -22 0 -15 2 -44 6 -64 3 -20 2 -41 -3 -46 -13 -13 5 -24 26 -16 9 3 14 9 11
14 -6 10 33 50 60 60 31 12 200 -31 274 -70 73 -37 139 -50 264 -50 113 0 194
-15 312 -55 65 -23 84 -26 109 -17 17 6 46 13 63 17 18 4 35 11 38 16 8 12 52
12 75 -1 15 -8 24 -6 39 9 11 11 22 17 25 14 3 -4 6 -1 6 5 0 15 -46 16 -55 2
-12 -19 -35 -10 -87 36 -79 70 -106 155 -75 244 15 44 72 77 148 86 88 10 133
-8 204 -82 l62 -65 34 33 c19 18 42 45 51 59 9 15 33 30 56 37 58 18 167 15
205 -5 23 -12 63 -17 147 -19 115 -3 228 -22 254 -43 7 -6 26 -13 42 -15 16
-2 52 -7 80 -11 33 -5 59 -3 73 4 18 10 27 9 54 -8 64 -42 71 -50 77 -98 4
-41 8 -48 35 -55 36 -11 287 0 332 13 17 6 39 21 48 35 9 14 27 30 41 36 28
13 33 53 9 84 -34 44 -6 101 61 124 24 8 41 7 75 -4 41 -14 45 -14 62 3 16 16
19 35 18 152 -1 188 22 176 -316 158z"/>
<path d="M14410 5124 c-14 -7 -29 -15 -34 -17 -6 -2 -6 -9 -1 -18 5 -8 10 -21
12 -29 4 -30 27 -60 45 -60 11 0 34 11 52 25 22 17 46 25 72 25 48 0 84 9 84
21 0 5 -9 9 -19 9 -10 0 -21 7 -24 15 -4 8 -27 17 -57 21 -28 4 -53 11 -56 15
-8 13 -45 9 -74 -7z"/>
<path d="M4440 5005 c0 -8 -8 -15 -17 -15 -13 0 -14 -3 -5 -12 7 -7 12 -43 12
-91 0 -70 -3 -83 -25 -109 -23 -27 -25 -37 -24 -121 1 -53 4 -80 8 -63 l6 30
24 -46 c35 -70 105 -128 241 -201 55 -30 62 -49 10 -27 -26 11 -33 10 -49 -4
-18 -17 -23 -69 -8 -93 3 -5 8 -35 11 -66 5 -46 2 -63 -16 -93 l-22 -37 -19
24 c-19 24 -19 24 4 30 l24 7 -23 1 c-12 1 -25 8 -29 17 -10 26 11 49 41 46
25 -3 25 -3 10 30 -8 18 -17 41 -21 51 -3 9 -9 17 -14 17 -5 0 -9 6 -9 14 0 8
-11 27 -24 42 l-23 28 -12 -22 c-7 -12 -9 -27 -6 -32 9 -15 -11 -12 -23 3 -10
11 -25 56 -66 192 l-16 50 5 -65 c6 -81 19 -119 93 -263 32 -62 66 -133 75
-156 17 -41 19 -42 54 -38 21 3 52 -1 71 -9 38 -16 76 -19 68 -5 -14 22 48 -5
66 -30 12 -15 25 -26 29 -23 4 2 10 0 14 -6 3 -5 11 -10 17 -10 7 0 6 5 -2 15
-19 23 -4 35 30 23 26 -9 36 -6 77 22 27 17 92 53 145 78 54 26 98 51 98 56 0
5 -7 17 -16 27 -24 27 -10 65 34 93 20 13 47 33 59 44 24 24 115 82 153 99 14
6 51 34 83 61 31 28 79 66 105 83 127 86 240 185 243 213 1 6 1 17 0 24 -1 6
3 12 9 12 5 0 10 5 10 11 0 6 6 17 14 25 13 12 16 11 21 -7 4 -11 9 -18 12
-16 2 3 -5 21 -15 41 l-20 37 -26 -32 c-20 -23 -24 -35 -16 -44 8 -10 4 -18
-15 -33 -14 -11 -25 -24 -25 -29 0 -10 -30 -37 -59 -53 -12 -6 -21 -17 -21
-25 0 -14 -38 -41 -52 -37 -5 1 -8 -3 -8 -10 0 -8 -3 -9 -10 -2 -12 12 6 64
22 64 4 0 8 7 8 15 0 8 13 24 30 36 16 12 27 26 24 31 -3 4 -7 17 -9 29 -3 15
0 19 10 15 9 -3 15 1 15 10 0 13 -4 13 -30 -2 -16 -10 -40 -28 -52 -39 -13
-12 -30 -19 -37 -17 -8 3 -11 0 -7 -6 4 -6 -2 -8 -16 -4 -12 3 -19 1 -15 -5 9
-14 -90 -38 -106 -25 -6 5 -23 8 -36 6 -13 -3 -29 1 -37 6 -9 8 -12 7 -10 -6
1 -9 11 -23 21 -30 17 -12 17 -14 2 -14 -9 0 -26 9 -37 20 -11 11 -15 20 -9
20 5 0 7 5 4 10 -13 21 -36 -10 -24 -31 6 -13 6 -19 0 -19 -6 0 -15 8 -20 18
-10 18 -11 23 -11 50 -1 16 -1 16 -11 -1 -6 -9 -7 -26 -4 -37 6 -20 -5 -25
-47 -22 -10 1 -17 -2 -17 -6 3 -19 -3 -22 -21 -12 -16 9 -19 8 -13 -7 5 -12 2
-15 -10 -10 -9 3 -17 3 -17 -2 0 -13 -108 -5 -128 10 -15 12 -16 12 -4 -2 11
-14 9 -17 -10 -17 -13 0 -30 -1 -38 -3 -8 -2 -14 2 -12 9 1 8 -2 11 -7 7 -12
-7 -30 25 -24 41 5 16 -23 38 -32 24 -3 -5 -1 -10 4 -10 6 0 11 -4 11 -10 0
-5 -8 -7 -17 -4 -17 5 -17 5 0 -6 18 -12 25 -36 7 -25 -6 4 -17 1 -25 -5 -11
-9 -15 -9 -15 -1 0 6 4 11 8 11 4 0 8 16 9 35 1 49 -27 47 -52 -2 l-18 -38
-13 30 -13 30 -1 -30 c0 -20 -3 -26 -9 -17 -4 7 -12 12 -17 11 -29 -5 -37 2
-18 17 19 15 19 15 -1 10 -19 -5 -20 -2 -17 34 5 45 -2 50 -29 18 -11 -11 -19
-16 -19 -10 0 11 -19 10 -55 -4 -18 -7 -18 -6 -6 9 12 15 11 17 -7 17 -23 0
-35 33 -18 50 8 8 6 10 -9 5 -19 -6 -20 -6 -1 9 18 14 16 16 -27 28 -26 6 -49
18 -52 26 -4 10 0 12 12 8 15 -5 15 -4 -1 9 -26 20 -31 19 -44 -10 -13 -28
-45 -33 -68 -11 -20 20 -17 36 6 36 11 0 20 -4 20 -10 0 -17 26 -11 45 10 10
11 22 17 26 14 5 -3 9 -1 9 5 0 5 -16 8 -34 7 -23 -2 -37 2 -40 11 -4 11 -1
13 14 8 16 -5 19 -3 13 11 -5 13 -3 15 7 9 8 -5 11 -4 7 2 -3 5 -26 10 -51 12
-36 1 -46 -2 -46 -14z m317 -688 c17 -9 35 -27 39 -39 4 -13 10 -25 14 -28 5
-3 11 -22 15 -43 6 -31 5 -37 -10 -37 -10 0 -23 7 -30 16 -6 9 -24 17 -38 17
-32 0 -34 8 -7 25 11 7 20 17 20 24 0 6 -9 2 -20 -10 -26 -27 -51 -28 -74 -3
-27 30 -17 55 24 61 l35 5 -32 12 c-18 7 -33 14 -33 16 0 10 69 -1 97 -16z"/>
<path d="M10008 4843 c-30 -8 -23 -60 10 -77 77 -41 91 -87 41 -139 -17 -17
-49 -56 -71 -85 -64 -87 -57 -85 -468 -79 -195 2 -398 1 -450 -3 -52 -5 -198
-11 -325 -15 -273 -7 -462 -21 -499 -35 -38 -14 -41 -32 -12 -89 15 -28 27
-54 27 -58 2 -13 62 -97 74 -105 6 -4 17 -25 25 -48 7 -22 17 -40 22 -40 5 0
26 -11 48 -25 23 -15 54 -25 75 -25 39 0 55 -21 36 -44 -21 -25 -2 -93 38
-131 19 -19 39 -35 43 -35 14 0 8 -30 -9 -49 -31 -33 -99 -40 -172 -18 -96 28
-201 5 -201 -44 0 -35 36 -42 204 -39 38 0 105 -7 149 -16 85 -17 122 -14 161
12 22 13 23 19 14 40 -6 13 -15 24 -20 24 -4 0 -8 6 -8 14 0 7 -7 20 -16 27
-15 12 -14 15 5 30 12 10 44 25 72 34 43 15 57 15 96 4 71 -20 98 -82 56 -131
-21 -24 -9 -50 34 -73 21 -11 39 -27 41 -36 4 -23 -136 -49 -268 -49 -137 0
-467 -27 -503 -41 -37 -15 -43 -48 -23 -122 37 -134 48 -143 174 -146 34 0
110 -12 168 -26 80 -19 154 -27 307 -35 336 -17 412 -15 490 11 67 22 71 22
135 6 47 -11 132 -18 282 -21 234 -5 343 -22 444 -70 49 -23 212 -49 460 -71
69 -7 81 -25 17 -27 -27 -1 -35 -7 -50 -37 -16 -32 -16 -43 -6 -94 7 -32 15
-61 19 -64 3 -4 127 -7 274 -8 280 -2 387 8 377 33 -3 8 0 21 6 28 6 7 8 18 5
23 -4 5 -1 13 5 16 6 4 13 -2 16 -13 6 -23 56 -45 69 -32 5 5 15 5 22 1 10 -6
4 -10 -18 -14 -60 -12 -20 -28 66 -26 46 1 82 5 79 8 -2 4 1 13 7 21 8 12 9
12 4 -2 -3 -10 -1 -20 4 -23 6 -4 10 -2 10 4 0 5 11 8 25 7 13 -2 22 1 19 5
-6 11 20 12 29 2 4 -4 26 -8 49 -11 24 -2 49 -8 56 -14 18 -16 144 -16 149 -1
2 6 -5 14 -16 18 -18 5 -19 13 -15 81 2 41 9 84 15 95 6 12 8 23 5 27 -4 3
-37 6 -75 6 -83 1 -103 14 -99 65 3 32 6 36 28 32 14 -2 41 -5 60 -5 28 -1 34
2 32 17 -2 9 4 20 12 23 11 4 7 13 -18 35 -19 16 -36 41 -39 57 -3 15 -24 55
-46 89 -23 33 -41 66 -41 72 0 24 30 70 51 76 28 9 51 -14 73 -75 10 -27 22
-53 27 -56 5 -3 19 -24 30 -47 12 -23 46 -68 77 -99 55 -57 56 -58 29 -58 -16
0 -26 -4 -22 -10 3 -5 -13 -3 -36 5 -47 17 -62 19 -55 7 3 -5 7 -21 10 -37 6
-31 21 -45 49 -45 10 0 15 -4 12 -10 -3 -5 -15 -10 -26 -10 -10 0 -19 -4 -19
-10 0 -5 8 -10 19 -10 10 0 32 -5 49 -11 24 -8 30 -16 29 -35 -1 -14 -8 -29
-16 -33 -11 -7 -11 -13 1 -37 l13 -29 95 2 c52 2 134 3 183 4 72 1 85 4 76 15
-16 19 0 23 105 26 61 2 91 7 94 16 2 6 -3 12 -10 12 -8 0 -23 7 -34 16 -18
14 -16 15 29 11 56 -5 68 6 30 28 -28 15 -28 15 20 9 42 -6 51 -3 73 17 22 20
25 31 24 89 -1 135 2 201 10 229 10 37 5 44 -55 70 -42 19 -65 22 -150 20
-105 -2 -149 5 -142 24 2 7 48 16 118 22 63 6 123 16 134 22 11 6 74 16 140
23 66 6 154 18 196 26 70 14 80 13 120 -2 59 -23 147 -27 178 -7 13 9 36 19
50 24 25 7 25 8 5 14 -16 5 -20 13 -16 30 2 14 10 29 18 35 15 14 60 9 57 -5
-5 -38 58 -68 86 -41 11 12 12 16 2 16 -9 0 -11 8 -7 24 4 16 0 29 -14 41 -18
16 -18 19 -3 41 9 14 14 26 12 27 -2 1 -19 13 -37 25 -49 35 -126 40 -184 13
-26 -11 -51 -21 -57 -21 -5 0 -15 17 -22 37 -11 36 -11 38 22 65 22 18 45 28
67 28 36 0 81 20 101 44 12 14 8 16 -33 16 -34 0 -56 -7 -79 -24 -18 -13 -53
-27 -79 -30 -44 -7 -47 -5 -60 21 -19 40 -43 40 -87 0 -30 -27 -66 -44 -153
-70 -254 -79 -255 -79 -310 -68 -48 11 -53 10 -96 -19 -62 -41 -115 -43 -164
-7 -30 22 -103 29 -160 14 -24 -6 -26 -10 -21 -44 4 -34 1 -39 -22 -50 -23
-10 -31 -9 -56 9 -16 12 -31 30 -35 40 -4 14 -16 18 -56 18 -44 0 -60 -6 -133
-56 -67 -45 -88 -54 -107 -48 -12 4 -35 7 -50 6 -15 -1 -29 2 -33 8 -3 5 -15
10 -25 10 -35 0 -35 43 -1 90 38 52 40 89 6 120 -30 28 -31 41 -5 65 11 10 20
26 20 35 0 9 -9 25 -20 35 -11 10 -20 23 -20 30 0 15 72 85 88 85 7 0 12 4 12
9 0 21 43 21 105 0 l66 -22 24 23 c22 20 40 25 123 31 75 5 102 3 119 -7 12
-8 29 -14 36 -14 8 0 20 -7 27 -15 7 -8 22 -13 33 -11 12 1 28 -3 36 -11 12
-12 8 -20 -28 -57 -46 -47 -52 -71 -19 -79 22 -6 145 19 163 33 5 4 42 19 80
33 39 14 167 63 285 110 309 121 377 145 450 157 36 5 90 16 120 25 70 19 117
19 177 -1 59 -20 74 -33 103 -89 15 -29 48 -64 96 -102 64 -50 74 -62 74 -89
0 -28 -9 -37 -72 -82 -40 -27 -84 -61 -97 -75 l-23 -25 32 -17 c24 -13 29 -19
19 -25 -24 -15 30 -21 166 -18 96 2 129 6 128 15 -2 7 20 19 52 28 30 9 53 21
50 26 -10 16 48 31 97 25 26 -3 50 -1 53 5 8 12 72 12 80 -1 3 -5 14 -10 24
-10 10 0 35 -13 56 -30 35 -28 43 -30 124 -30 109 0 197 -28 161 -50 -10 -7 7
-10 52 -10 37 0 70 5 73 10 3 6 22 10 40 10 19 0 50 8 69 17 29 13 40 14 61 5
32 -15 65 -16 65 -2 0 15 51 12 80 -5 14 -8 39 -21 55 -29 17 -9 26 -16 20
-16 -5 -1 -1 -5 10 -9 13 -5 33 -1 58 11 l37 20 0 361 0 360 -482 -6 c-266 -4
-723 -7 -1016 -7 l-533 0 -24 -26 c-18 -19 -25 -38 -25 -66 0 -63 -46 -94
-250 -169 -14 -5 -45 -13 -70 -18 -25 -5 -70 -16 -100 -25 -67 -18 -105 -27
-145 -31 -16 -1 -38 -6 -47 -9 -41 -14 -48 -15 -53 -6 -4 6 -11 10 -16 10 -6
0 -7 -5 -3 -11 4 -7 0 -9 -14 -5 -12 4 -32 2 -44 -5 -20 -11 -21 -10 -11 3 19
22 76 43 183 67 52 12 103 24 113 26 9 3 25 7 35 9 39 10 165 56 176 65 6 5
20 11 31 14 37 9 -368 7 -525 -3 -236 -15 -517 -28 -930 -45 -413 -17 -704
-32 -793 -41 -49 -6 -58 -10 -63 -30 -3 -12 -2 -29 2 -36 11 -16 13 -120 4
-133 -4 -5 -10 -29 -12 -52 -3 -33 0 -43 12 -44 10 0 9 -3 -4 -8 -14 -5 -16
-10 -8 -15 7 -4 9 -13 5 -19 -9 -14 -10 -24 -16 -94 -3 -30 -1 -53 5 -53 5 0
6 -5 3 -10 -4 -6 -9 -34 -12 -62 -4 -39 -3 -49 7 -43 9 6 9 3 0 -15 -8 -16 -9
-20 -1 -15 8 4 11 -5 9 -30 -1 -20 -6 -39 -11 -42 -4 -2 -3 -11 4 -19 8 -10 8
-14 0 -14 -6 0 -11 -11 -11 -25 0 -20 -7 -26 -40 -35 -51 -14 -66 -39 -17 -31
11 2 8 -6 -10 -25 -17 -17 -17 -17 7 -10 14 4 88 9 164 11 76 1 227 6 335 10
167 6 199 4 216 -9 16 -12 18 -18 9 -33 -10 -16 -27 -18 -135 -18 -159 -1
-590 -32 -695 -51 -44 -7 -114 -14 -155 -14 -41 0 -105 -7 -142 -17 -59 -14
-85 -15 -179 -5 -120 11 -155 27 -172 74 -13 36 -2 66 44 123 52 63 87 76 160
63 53 -9 154 -62 180 -93 18 -22 49 -18 59 8 5 12 11 177 15 366 3 189 11 407
17 485 12 159 5 356 -16 431 -8 28 -25 61 -39 74 -32 30 -129 56 -168 44z
m-120 -1172 c17 -10 -21 -68 -79 -123 -43 -40 -55 -41 -83 -3 -13 18 -28 25
-51 25 -18 0 -35 6 -38 14 -8 19 28 69 60 83 32 14 171 17 191 4z m2362 -189
c21 -17 21 -18 3 -40 -18 -22 -92 -42 -159 -42 -32 0 -34 2 -34 34 0 50 22 62
121 65 32 1 54 -5 69 -17z"/>
<path d="M14411 4830 c-13 -11 -30 -20 -38 -20 -13 0 -13 -3 -2 -16 7 -9 14
-23 15 -32 5 -29 27 -62 47 -68 13 -4 29 3 51 25 27 26 39 31 83 31 28 0 58 3
67 6 20 8 11 24 -15 24 -10 0 -19 4 -19 10 0 5 -19 14 -42 21 -24 6 -55 17
-70 25 -34 18 -48 17 -77 -6z"/>
<path d="M7280 4434 c-51 -11 -128 -14 -347 -12 -155 2 -280 2 -279 1 5 -5
211 -75 251 -85 22 -6 92 -25 155 -43 63 -18 137 -39 163 -46 46 -11 227 -118
277 -164 36 -32 76 -51 150 -70 36 -9 73 -21 82 -26 26 -14 65 -11 80 6 28 31
38 44 38 51 0 4 16 22 35 40 35 32 41 53 35 136 -1 15 6 54 14 87 18 71 16 81
-26 105 -27 16 -59 19 -262 21 -127 2 -247 5 -266 8 -19 3 -64 -1 -100 -9z"/>
<path d="M5450 4381 c0 -5 -20 -21 -44 -35 -24 -14 -55 -39 -69 -55 -22 -27
-72 -59 -117 -74 -8 -3 9 -5 37 -4 29 1 53 5 53 10 0 4 9 7 21 7 28 0 20 -22
-14 -38 -28 -14 -38 -39 -12 -29 8 4 17 1 21 -5 4 -7 9 -6 14 2 6 10 15 10 38
2 17 -6 32 -8 35 -6 3 3 3 23 0 44 -5 35 -2 42 41 84 49 50 58 79 27 96 -24
12 -31 13 -31 1z"/>
<path d="M5260 4139 c-8 -5 -45 -22 -82 -38 -47 -21 -66 -34 -65 -46 1 -12 -7
-19 -23 -21 -49 -7 -70 -15 -70 -24 0 -5 8 -7 18 -4 9 3 6 -2 -8 -10 -14 -8
-35 -15 -47 -16 -12 0 -24 -8 -28 -19 -3 -10 -15 -23 -28 -29 -20 -9 -19 -10
13 -10 19 0 51 10 70 23 19 12 67 39 105 60 39 20 78 46 88 56 10 10 24 19 32
19 8 0 15 7 15 15 0 8 14 18 33 23 30 8 30 9 12 19 -12 6 -26 7 -35 2z"/>
<path d="M7840 3920 c-11 -11 -21 -23 -21 -27 -3 -19 -7 -54 -14 -129 l-7 -81
32 -12 c43 -14 43 -14 68 8 40 34 38 188 -3 235 -27 31 -29 32 -55 6z"/>
<path d="M1 3374 l-1 -552 24 -6 c14 -3 35 -2 49 3 13 5 30 5 37 1 8 -5 19 -5
25 -1 15 12 65 20 59 9 -4 -5 4 -8 17 -7 13 2 31 -1 39 -5 8 -5 12 -6 8 -1 -4
4 0 14 10 21 15 12 15 12 -5 7 -14 -3 -23 -1 -23 6 0 10 21 16 43 12 4 0 7 3
7 8 0 5 10 11 22 14 19 5 20 8 7 23 -12 16 -12 17 1 9 12 -6 13 -5 3 5 -9 9
-9 19 -2 33 8 15 8 18 -1 12 -9 -6 -10 1 -5 26 4 19 4 31 0 27 -16 -15 -34 20
-29 54 4 24 1 39 -10 51 -20 20 -20 22 2 25 34 4 52 8 58 15 4 4 14 1 22 -6
10 -8 13 -8 9 -1 -4 7 0 14 8 18 33 12 15 35 -32 41 -69 9 -85 15 -80 28 2 7
12 14 23 15 10 2 23 8 29 13 24 23 -41 44 -178 56 -47 4 -57 8 -53 20 3 8 -3
27 -13 42 -20 28 -39 162 -60 431 -6 72 -9 -68 -10 -446z"/>
<path d="M2070 3698 c-19 -5 -75 -12 -125 -16 -82 -6 -90 -9 -93 -29 -2 -12
-10 -27 -18 -33 -19 -16 -18 -58 2 -77 15 -15 19 -15 48 0 106 54 206 16 206
-80 0 -34 -5 -46 -30 -67 -36 -30 -96 -44 -119 -27 -25 18 -95 50 -100 46 -15
-16 -21 -141 -7 -159 10 -13 16 -13 51 4 67 32 100 35 134 11 16 -12 32 -21
36 -21 3 0 20 -13 37 -29 17 -16 37 -27 44 -24 13 5 34 62 34 92 0 8 7 22 16
32 24 26 21 103 -5 130 -16 18 -20 31 -15 58 9 64 7 83 -15 146 -15 41 -38 53
-81 43z"/>
<path d="M7755 3543 c-93 -11 -92 -10 -99 -57 -6 -38 -2 -54 34 -123 25 -49
43 -101 47 -133 l6 -52 66 6 c106 11 127 16 161 44 30 26 32 30 37 123 7 114
1 128 -70 169 -52 30 -89 35 -182 23z"/>
<path d="M13019 3449 c-61 -27 -67 -53 -53 -230 13 -159 18 -177 47 -184 179
-41 148 -41 422 2 148 23 177 24 385 19 124 -4 315 -8 425 -11 198 -5 330 -9
743 -21 l212 -6 0 206 0 206 -42 1 c-24 0 -61 2 -83 4 -22 1 -287 5 -590 9
-302 4 -602 8 -665 11 -63 3 -259 7 -435 10 -308 5 -322 4 -366 -16z"/>
<path d="M1030 3323 c-8 -3 -39 -14 -67 -25 -29 -11 -53 -25 -53 -33 0 -15
-27 -30 -62 -34 -8 -1 -4 -7 7 -14 11 -7 20 -19 20 -27 0 -9 25 -24 65 -38 57
-21 82 -24 196 -23 153 2 178 5 222 33 51 32 79 102 50 125 -41 31 -107 43
-233 42 -72 0 -137 -3 -145 -6z"/>
<path d="M2060 2853 c-19 -8 -44 -23 -55 -33 -11 -10 -42 -25 -69 -34 -87 -29
-109 -50 -63 -59 16 -3 13 -4 -8 -4 -16 0 -46 -9 -65 -21 -21 -13 -51 -22 -75
-22 -22 0 -49 -6 -60 -13 -27 -18 -104 -36 -196 -46 -82 -9 -115 -24 -123 -56
-9 -33 -7 -44 15 -66 l20 -20 35 20 c39 24 65 27 62 9 -2 -7 8 -14 22 -16 14
-2 31 -9 38 -14 8 -7 12 -7 12 1 0 6 9 2 21 -10 36 -36 -2 -79 -71 -79 -18 0
-30 -5 -30 -13 0 -7 -18 -23 -40 -36 -42 -23 -51 -45 -24 -55 8 -3 13 -9 10
-14 -2 -4 9 -17 25 -27 16 -11 28 -27 26 -35 -1 -8 13 -22 32 -32 18 -9 46
-29 61 -43 24 -23 32 -25 77 -19 37 5 58 2 83 -11 27 -14 48 -16 114 -10 61 5
89 3 116 -9 27 -11 31 -16 18 -21 -9 -4 -14 -13 -12 -20 8 -20 -19 -23 -176
-20 -80 2 -161 4 -180 4 -19 1 -56 -4 -81 -10 -40 -10 -45 -15 -41 -35 2 -13
14 -25 27 -28 40 -10 38 -34 -7 -66 -22 -17 -44 -30 -47 -30 -3 0 -12 -10 -19
-21 -17 -26 -2 -46 38 -51 14 -2 35 -9 47 -16 12 -7 37 -12 55 -12 18 0 29 -4
23 -8 -12 -8 -20 -66 -8 -59 5 3 31 1 58 -4 99 -19 236 -19 293 -2 28 9 52 21
52 25 0 5 5 6 11 2 7 -4 9 5 6 31 -7 50 14 69 93 84 79 16 150 50 150 72 0 9
-52 123 -115 253 -112 230 -115 235 -142 231 -108 -17 -113 -16 -139 10 l-26
26 24 18 c12 10 34 22 48 26 32 10 50 24 50 41 0 7 27 64 61 125 53 98 99 204
99 231 0 11 -8 9 -50 -9z"/>
<path d="M12340 2846 c0 -3 33 -15 73 -27 81 -25 197 -30 354 -15 176 17 84
34 -222 42 -113 3 -205 3 -205 0z"/>
<path d="M420 2813 c-1 -7 -3 -16 -4 -20 -1 -5 -4 -12 -8 -18 -3 -5 -9 -44
-12 -85 -3 -41 -10 -88 -14 -105 -5 -16 -9 -44 -8 -62 1 -17 -2 -29 -5 -27 -4
2 -9 -5 -12 -16 -3 -11 -1 -20 4 -20 12 0 8 -79 -4 -87 -5 -3 -3 -9 4 -14 9
-5 13 -39 14 -122 0 -66 4 -113 9 -109 5 3 5 -1 0 -9 -12 -19 -13 -89 -2 -89
5 0 6 -6 2 -12 -14 -23 -32 -137 -22 -140 5 -2 11 -32 14 -66 2 -40 0 -61 -6
-57 -6 3 -10 1 -10 -4 0 -6 -6 -11 -12 -11 -7 0 -19 -4 -27 -9 -12 -8 -12 -12
-2 -25 7 -9 18 -13 25 -9 6 3 4 -2 -5 -13 -28 -34 -34 -51 -11 -31 21 19 26 7
9 -20 -6 -9 -3 -11 8 -7 11 5 18 0 22 -15 3 -11 9 -21 14 -21 5 0 6 -7 3 -15
-4 -8 -11 -12 -16 -9 -7 4 -7 0 0 -12 11 -23 4 -86 -11 -96 -7 -4 -6 -12 4
-24 9 -11 9 -15 2 -10 -7 4 -13 3 -13 -3 0 -19 23 -61 34 -62 6 0 1 -4 -12 -9
-18 -8 -21 -15 -16 -34 3 -13 1 -27 -5 -31 -6 -3 -9 -11 -6 -16 4 -5 1 -9 -6
-9 -7 0 -4 -6 6 -14 21 -15 120 -19 147 -5 31 16 41 108 34 313 -4 105 -8 216
-11 246 -6 85 -17 286 -20 376 -1 44 -6 118 -10 165 -4 46 -8 91 -7 99 0 8 1
45 2 82 1 36 -1 72 -5 78 -4 7 -9 37 -11 68 -6 75 -11 104 -22 111 -6 3 -12
15 -15 26 -2 11 -6 14 -7 8z"/>
<path d="M6815 2529 c-17 -17 -118 -78 -165 -101 -25 -11 -54 -29 -65 -39 -29
-26 -96 -48 -120 -39 -11 4 -30 3 -43 -3 -17 -8 -31 -6 -58 6 -65 31 -57 11
12 -27 89 -50 106 -50 198 -4 44 22 110 60 146 83 68 45 143 115 121 115 -7 0
-9 5 -6 10 8 13 -7 12 -20 -1z"/>
<path d="M5564 2273 c-26 -3 -36 -12 -53 -46 -29 -58 -77 -186 -84 -222 -3
-16 -16 -82 -28 -145 -18 -97 -20 -122 -10 -159 13 -51 10 -58 -21 -43 -13 6
-17 11 -10 11 16 1 16 27 -1 34 -7 3 -32 2 -56 -3 -45 -8 -131 6 -131 21 0 16
-71 41 -96 35 -24 -6 -33 -30 -49 -119 -6 -36 -5 -37 15 -25 17 11 22 11 30
-2 8 -12 13 -13 30 -2 26 16 47 15 54 -3 6 -17 -15 -24 -94 -27 -45 -3 -55 -6
-58 -22 -4 -18 1 -19 116 -13 66 4 128 10 138 14 13 5 16 3 11 -10 -3 -9 -4
-17 -1 -17 12 0 50 24 67 41 21 23 62 24 135 5 60 -16 231 -32 220 -21 -13 13
12 45 35 45 33 0 126 -31 281 -94 77 -31 157 -59 180 -63 l40 -6 -17 26 c-9
14 -17 29 -17 33 0 16 110 -10 189 -46 47 -21 98 -42 114 -45 23 -6 27 -4 27
14 0 25 -2 25 68 5 32 -9 68 -27 80 -41 21 -21 29 -23 67 -17 25 3 59 1 79 -6
70 -23 216 32 216 80 0 11 6 20 14 20 21 0 93 41 117 66 14 15 22 37 23 63 0
23 4 42 8 42 5 1 13 3 18 4 6 1 16 3 24 4 8 0 28 13 45 27 43 36 44 88 2 111
-32 19 -62 56 -36 47 8 -4 15 -1 15 5 0 6 11 11 24 11 13 0 35 9 50 21 24 19
27 27 24 77 -2 36 -8 58 -18 63 -8 4 -43 24 -76 43 -64 37 -99 45 -107 24 -4
-10 -8 -9 -16 2 -9 12 -11 11 -11 -8 0 -24 -31 -44 -38 -23 -3 9 -7 9 -18 0
-8 -6 -14 -8 -14 -4 0 4 -7 2 -15 -5 -8 -6 -19 -8 -26 -4 -11 6 -82 16 -122
15 -14 0 -16 3 -8 12 5 7 6 19 2 26 -6 9 -11 10 -15 2 -11 -18 -38 -13 -34 6
6 31 -30 56 -83 57 -29 1 -49 -2 -49 -9 0 -5 -8 1 -18 15 -12 18 -27 26 -55
27 -35 2 -38 0 -32 -20 4 -12 13 -35 21 -51 12 -26 12 -28 -5 -23 -14 3 -17
-1 -16 -25 2 -26 -1 -29 -22 -23 -16 4 -22 2 -18 -5 3 -5 13 -10 21 -10 8 0
33 -12 55 -26 23 -14 47 -23 54 -20 8 3 28 1 45 -4 29 -8 30 -7 18 7 -12 15
-9 16 32 9 25 -4 47 -11 48 -16 2 -6 17 -10 33 -10 84 0 292 -71 271 -92 -5
-5 -37 -10 -70 -11 -48 -1 -58 -4 -50 -14 7 -9 7 -17 -2 -28 -18 -21 -26 -10
-9 12 12 16 12 17 -1 6 -22 -17 -143 -34 -188 -27 -56 9 -69 18 -53 38 9 11
30 16 67 16 30 0 54 4 54 8 0 4 -23 16 -51 27 -28 11 -55 25 -61 32 -5 6 -16
9 -24 6 -8 -3 -21 0 -29 7 -8 7 -22 10 -30 6 -15 -5 -112 21 -129 35 -5 4 -28
-2 -52 -14 -73 -35 -58 -82 35 -107 24 -6 41 -14 38 -16 -8 -8 -218 26 -251
40 -45 19 -121 36 -161 36 -19 0 -72 -8 -117 -19 -46 -10 -105 -19 -133 -21
-27 -1 -64 -3 -80 -3 -30 -2 -31 -1 -29 37 2 30 -2 39 -17 43 -10 3 -19 9 -19
13 0 4 -7 10 -14 13 -10 4 -13 1 -9 -9 6 -15 -10 -17 -42 -5 -19 8 -19 8 2 19
12 7 29 12 38 12 9 0 13 5 10 10 -4 6 -10 8 -15 5 -5 -3 -18 5 -29 17 l-21 22
0 -22 c0 -27 -16 -28 -30 -2 -6 11 -8 20 -4 20 3 0 1 7 -6 15 -7 8 -20 15 -29
15 -14 -1 -14 -2 -1 -13 9 -7 15 -18 15 -26 0 -21 -25 -26 -25 -6 0 14 -3 15
-14 6 -11 -10 -17 -8 -25 6 -7 12 -10 13 -11 4 0 -10 -10 -12 -42 -7 -39 6
-78 26 -51 26 12 0 37 57 34 79 -1 7 2 10 8 6 6 -3 11 1 11 10 0 24 36 59 54
52 13 -5 16 1 16 28 0 19 -1 34 -2 33 -2 0 -17 -3 -34 -5z m-11 -291 c9 -8 17
-11 17 -6 0 5 8 -6 16 -23 9 -18 21 -33 26 -33 5 0 2 10 -6 22 -20 28 -20 39
-2 32 8 -3 17 -16 20 -30 4 -13 11 -24 17 -24 8 0 7 5 -2 16 -11 13 -9 14 14
9 23 -6 27 -4 27 15 0 22 1 22 18 7 10 -10 22 -14 27 -10 4 5 5 -9 1 -29 -4
-24 -3 -38 4 -38 5 0 10 -4 10 -10 0 -5 -13 -7 -30 -3 -22 4 -30 2 -30 -8 -1
-9 -10 -4 -24 12 -18 21 -30 25 -57 22 -55 -6 -137 15 -150 39 -10 18 -9 20 5
15 10 -4 16 -1 16 8 0 22 13 18 40 -10 13 -14 26 -23 28 -20 3 3 -8 19 -24 36
-21 22 -24 28 -10 23 15 -6 17 -4 11 6 -9 15 9 6 38 -18z m572 -207 c44 -14
89 -26 100 -26 126 1 148 -1 162 -14 8 -8 19 -15 25 -15 6 0 -1 -9 -15 -20
-27 -22 -63 -25 -111 -11 -228 69 -256 81 -256 103 0 12 8 10 95 -17z m748
-25 c102 -25 122 -37 106 -57 -14 -16 -38 -15 -166 8 -40 7 -73 16 -73 21 0 5
-11 13 -25 18 -14 5 -25 14 -25 20 0 17 101 11 183 -10z"/>
<path d="M0 2054 c0 -54 4 -83 10 -79 5 3 10 0 10 -7 0 -8 12 -14 30 -14 17
-1 30 3 30 8 0 5 7 2 16 -7 12 -12 19 -13 30 -4 8 6 11 16 7 22 -3 6 -1 7 5 3
7 -4 22 0 34 9 l23 17 -24 -7 c-18 -5 -22 -4 -16 6 6 9 3 11 -11 7 -14 -3 -20
0 -21 11 -1 11 7 16 28 16 19 0 28 -4 24 -12 -6 -18 -2 -16 18 7 16 19 16 20
-6 16 -12 -2 -31 4 -41 13 -11 9 -16 10 -12 4 11 -19 2 -16 -29 11 -15 13 -25
28 -21 34 4 6 -2 8 -16 4 -13 -3 -19 -1 -15 5 6 9 -21 22 -45 23 -5 0 -8 -39
-8 -86z"/>
<path d="M2750 1519 c-18 -32 5 -76 51 -99 21 -11 71 -23 111 -27 59 -5 76
-11 91 -29 9 -12 32 -27 50 -33 40 -13 130 -17 147 -6 28 17 265 22 255 5 -2
-4 2 -7 10 -7 8 0 15 4 15 8 0 8 20 7 36 -4 10 -6 51 -3 114 7 33 5 57 26 67
60 14 45 23 44 -222 50 -192 5 -381 29 -596 76 -115 25 -116 25 -129 -1z"/>
<path d="M0 1504 c0 -12 6 -15 24 -10 16 4 26 1 30 -10 3 -8 2 -13 -2 -10 -4
2 -14 1 -22 -5 -10 -6 -11 -9 -2 -9 6 0 12 -4 12 -9 0 -5 -9 -7 -20 -4 -19 5
-20 0 -20 -83 0 -67 3 -85 12 -76 8 8 15 9 25 1 9 -8 17 -8 26 0 8 6 17 8 21
4 4 -4 24 -8 44 -9 61 -3 64 -3 56 -16 -4 -7 -4 -10 0 -7 4 4 27 3 51 -2 46
-9 75 -4 75 12 0 4 -7 5 -17 2 -11 -4 -14 -3 -9 5 5 8 0 12 -13 12 -12 0 -21
5 -21 10 0 6 0 13 -1 18 0 4 9 9 20 12 18 4 18 7 5 24 -14 20 -14 20 -15 0 0
-17 -1 -17 -9 3 -6 16 -14 21 -26 16 -11 -4 -23 2 -35 18 -10 13 -19 18 -19
12 0 -7 -4 -13 -10 -13 -5 0 -7 6 -4 14 3 7 -2 16 -11 20 -9 3 -13 2 -10 -4 3
-6 4 -10 1 -10 -3 0 -10 10 -17 21 -8 15 -8 19 0 15 7 -5 11 2 11 18 0 22 -5
27 -40 32 -22 4 -40 9 -40 13 0 4 -11 8 -25 9 -17 1 -25 -3 -25 -14z"/>
<path d="M4036 1088 c-32 -104 -92 -238 -127 -281 -12 -16 -71 -73 -131 -127
-228 -205 -286 -329 -276 -589 l3 -91 78 0 c77 0 78 0 71 23 -18 56 -29 367
-12 367 5 0 5 7 0 17 -10 18 4 63 20 63 4 0 7 3 6 7 -3 13 28 67 51 87 12 11
21 24 21 30 0 7 10 18 22 26 12 8 34 27 49 42 15 15 30 24 33 20 8 -7 82 69
78 80 -1 4 9 18 22 31 19 19 27 22 37 13 9 -8 10 -8 5 2 -9 15 -1 15 25 2 14
-8 19 -8 17 1 -5 22 21 20 32 -2 7 -12 8 -19 2 -15 -6 3 -13 2 -17 -4 -3 -5 0
-10 8 -10 15 0 32 -73 22 -90 -3 -5 2 -22 12 -37 11 -17 13 -24 5 -19 -12 7
-12 4 -2 -13 6 -12 12 -37 12 -54 0 -18 3 -36 7 -42 3 -5 7 -19 9 -30 7 -36 8
-40 15 -52 4 -6 3 -13 -1 -15 -5 -1 0 -37 10 -78 11 -41 19 -91 19 -110 0 -19
3 -41 8 -49 6 -8 6 -24 0 -38 -5 -13 -5 -23 0 -23 17 0 19 28 10 146 -9 120
-39 787 -39 863 0 41 0 41 -38 41 l-37 0 -29 -92z"/>
<path d="M5420 1139 c-74 -3 -211 -7 -305 -9 -93 -1 -179 -5 -190 -10 -14 -6
-3 -9 40 -10 33 -1 110 -3 170 -5 109 -3 158 -9 200 -25 42 -16 267 0 310 23
11 6 42 11 70 13 110 5 181 5 206 0 16 -4 31 -1 38 8 9 11 2 14 -35 20 -57 7
-319 5 -504 -5z"/>
<path d="M6410 1118 c-25 -5 -69 -7 -98 -5 -40 3 -55 0 -59 -10 -6 -16 28
-193 36 -193 3 0 6 25 6 57 0 54 1 57 30 65 36 11 57 14 152 23 63 6 72 9 70
26 -2 10 -7 22 -12 26 -4 5 -5 1 -1 -7 4 -8 -1 -5 -10 8 -18 24 -40 26 -114
10z"/>
</g>
</svg>
