<svg xmlns="http://www.w3.org/2000/svg" version="1.1" xmlns:xlink="http://www.w3.org/1999/xlink" xmlns:svgjs="http://svgjs.dev/svgjs" width="1500" height="1500" viewBox="0 0 1500 1500"><rect width="1500" height="1500" fill="#ffffff"></rect><g transform="matrix(0.6666666666666666,0,0,0.6666666666666666,249.39393939393938,513.4939241602302)"><svg viewBox="0 0 396 187" data-background-color="#ffffff" preserveAspectRatio="xMidYMid meet" height="708" width="1500" xmlns="http://www.w3.org/2000/svg" xmlns:xlink="http://www.w3.org/1999/xlink"><g id="tight-bounds" transform="matrix(1,0,0,1,0.2400000000000091,0.2005003856714893)"><svg viewBox="0 0 395.52 186.59899922865702" height="186.59899922865702" width="395.52"><g><svg viewBox="0 0 395.52 186.59899922865702" height="186.59899922865702" width="395.52"><g><svg viewBox="0 0 395.52 186.59899922865702" height="186.59899922865702" width="395.52"><g id="textblocktransform"><svg viewBox="0 0 395.52 186.59899922865702" height="186.59899922865702" width="395.52" id="textblock"><g><svg viewBox="0 0 395.52 125.9992670780031" height="125.9992670780031" width="395.52"><rect width="395.52" height="125.9992670780031" x="0" y="0" opacity="1" fill="#5ebc67" data-fill-palette-color="tertiary"></rect><g transform="matrix(1,0,0,1,23.461705032,23.461705032)"><svg width="348.596589936" viewBox="1.75 -37.8 226.13 51.3" height="79.07585701400309" data-palette-color="#ffffff"><path d="M15.65-14L10.6-14.6 11.1-2.5 15.95-1.5 15.7 0.5 8.6 0 1.75 0.5 1.85-1.5 6-2.5 6.35-15.3 6.1-32.5 2-33.5 2.25-35.5 8.35-35 15.05-35.55 19.15-35.25 23.2-33.95 27.15-30.95 28.4-25.8 27.5-20.25 24.45-16.75 15.65-14ZM18.25-33.2L10.95-32.75 10.65-16.8 15.05-16.25 21.8-19.1 23.25-24.75 22.2-29.35 18.25-33.2ZM39.15-37.25L38.9-30.45 38.75-22.25 44.3-25.65 49.4-26 54-22.85 54.75-18.85 54.65-8.3 55.05-2.45 58.6-1.5 58.35 0.25 52.45 0 46.35 0.25 46.45-1.5 49.75-2.5 50.1-7.75 49.9-18.65 48.55-21.95 44.3-22.7 38.7-19.85 38.6-13.15 38.7-8.3 38.85-2.5 42.5-1.5 42.25 0.25 36.35 0 30.25 0.25 30.35-1.5 33.65-2.5 34.1-7.75 33.9-29.65 33.55-34.85 30-34.7 29.75-36.45 36.65-37.8 39.15-37.25ZM79.8-19.8L79.84-9.1 80.2-2.05 83.65-1.55 83.3 0.1 76.34 0.7 75.7-2.25 75.45-2.25 70.5 0.7 65.3 0.7 61.8-1.85 60.75-6.75 62.95-10.65 68.95-13.25 75.55-13.5 75.34-19.75 74.4-22.85 70.34-24 65.5-22.85 65.34-17.55 63.4-17.15 62.1-24 67.84-25.7 74.3-26 78.2-24.1 79.8-19.8ZM65.59-6.85L66.95-2.8 70.7-1.85 75.75-4.75 75.55-11.5 71.2-11.5 67.34-9.95 65.59-6.85ZM94.49-24.95L94.29-20.9 94.49-20.9 97.59-24.45 100.99-25.95 104.74-25 103.89-17.55 102.14-17.9 100.89-23.05 97.64-22 94.09-17.85 93.84-13.15 93.99-8.3 94.19-2.5 99.19-1.5 98.94 0.25 91.69 0 85.59 0.25 85.69-1.5 88.99-2.5 89.24-7.75 89.14-17.35 88.89-22.55 85.34-22.4 85.09-24.15 91.99-25.5 94.49-24.95ZM131.09-8.3L131.49-2.45 135.04-1.5 134.79 0.25 128.89 0 122.79 0.25 122.89-1.5 126.19-2.5 126.54-7.75 126.34-18.65 124.99-21.95 120.74-22.7 115.79-20.05 115.69-18.15 115.39-13.15 115.49-8.3 115.74-2.5 119.39-1.5 119.14 0.25 113.24 0 107.14 0.25 107.24-1.5 110.54-2.5 110.89-7.75 110.69-17.35 110.44-22.55 106.89-22.4 106.64-24.15 113.54-25.5 116.04-24.95 115.89-22.6 120.74-25.65 125.84-26 130.44-22.85 130.69-21.5 135.69-25.65 140.79-26 145.39-22.85 146.14-18.85 146.04-8.3 146.44-2.45 149.99-1.5 149.74 0.25 143.84 0 137.74 0.25 137.84-1.5 141.14-2.5 141.49-7.75 141.29-18.65 139.94-21.95 135.69-22.7 131.09-19.35 131.19-18.85 131.09-8.3ZM170.69-19.8L170.74-9.1 171.09-2.05 174.54-1.55 174.19 0.1 167.24 0.7 166.59-2.25 166.34-2.25 161.39 0.7 156.19 0.7 152.69-1.85 151.64-6.75 153.84-10.65 159.84-13.25 166.44-13.5 166.24-19.75 165.29-22.85 161.24-24 156.39-22.85 156.24-17.55 154.29-17.15 152.99-24 158.74-25.7 165.19-26 169.09-24.1 170.69-19.8ZM156.49-6.85L157.84-2.8 161.59-1.85 166.64-4.75 166.44-11.5 162.09-11.5 158.24-9.95 156.49-6.85ZM194.89-16.9L193.99-23.15 187.69-23.65 183.19-18.85 181.89-13.65 182.54-8.35 185.74-2.55 191.89-1.55 196.59-4.05 197.49-2.75 193.54 0.4 188.84 1 181.69-1.05 177.24-8.3 177.19-16.65 180.59-22.6 185.84-25.35 190.39-26 198.04-25 196.54-17.15 194.89-16.9ZM207.48 13L204.98 13.5 203.43 11.25 201.93 7.15 203.83 6.45 206.63 10.6 209.18 8.15 212.68 0.15 204.93-19.7 203.18-22.75 199.63-23.5 199.88-25.25 205.98-25 211.93-25.25 211.83-23.5 208.93-22.65 209.68-19.55 212.38-12.65 215.13-4.6 215.28-4.6 217.78-12.45 220.33-19.6 220.83-22.8 218.03-23.5 218.28-25.25 223.63-25 227.88-25.25 227.78-23.5 224.73-22.6 222.98-18.85 215.53 1.05 211.23 9.3 207.48 13Z" opacity="1" transform="matrix(1,0,0,1,0,0)" fill="#ffffff" class="wordmark-text-0" data-fill-palette-color="quaternary" id="text-0"></path></svg></g></svg></g><g transform="matrix(1,0,0,1,0,137.7301195940031)"><svg viewBox="0 0 395.52 48.86887963465391" height="48.86887963465391" width="395.52"><g transform="matrix(1,0,0,1,0,0)"><svg width="395.52" viewBox="2.45 -34.8 288.13 35.599999999999994" height="48.86887963465391" data-palette-color="#5ebc67"><path d="M8.05 0.4L4 0.4Q3.15 0.4 2.8-0.4 2.45-1.2 2.45-2.55L2.45-2.55Q2.45-3.55 2.6-4.8L2.6-4.8 5.75-34 15.05-34Q21.2-34 24.25-31.95 27.3-29.9 27.3-25.15L27.3-25.15Q27.3-22.25 25.98-19.85 24.65-17.45 22.58-15.7 20.5-13.95 18.15-13 15.8-12.05 13.75-12.05L13.75-12.05Q13.2-12.05 12.53-12.4 11.85-12.75 11.38-13.3 10.9-13.85 10.9-14.4L10.9-14.4Q10.9-14.95 11.25-15.18 11.6-15.4 12-15.45L12-15.45Q14.25-15.9 16.23-17.03 18.2-18.15 19.43-20.03 20.65-21.9 20.65-24.5L20.65-24.5Q20.65-26.75 19.58-28 18.5-29.25 16.45-29.75 14.4-30.25 11.35-30.25L11.35-30.25 8.05 0.4ZM50.65 0.5L47 0.5Q46.6 0.5 46.32-0.03 46.05-0.55 45.95-1.2 45.85-1.85 45.85-2.25L45.85-2.25Q45.85-2.95 45.95-4.05 46.05-5.15 46.2-6.38 46.35-7.6 46.5-8.5L46.5-8.5 47.35-13.7Q47.5-14.7 47.65-15.58 47.8-16.45 47.8-17.45L47.8-17.45Q47.8-18.2 47.5-18.6 47.2-19 46.7-19L46.7-19Q46.05-19 44.57-17.78 43.1-16.55 41.42-14.25 39.75-11.95 38.37-8.68 37-5.4 36.6-1.25L36.6-1.25 35.35-8.75Q37.4-14.55 39.95-18 42.5-21.45 45-22.98 47.5-24.5 49.4-24.5L49.4-24.5Q51.6-24.5 52.6-23.23 53.6-21.95 53.6-19.95L53.6-19.95Q53.6-18.85 53.42-17.65 53.25-16.45 53.05-15.15L53.05-15.15 50.65 0.5ZM32.15 0.7L32.15 0.7Q31.5 0.7 31.17 0.43 30.85 0.15 30.85-0.8 30.85-1.75 31.05-3.75L31.05-3.75 33.2-23.45Q33.5-26.3 33.95-29.13 34.4-31.95 34.55-34.8L34.55-34.8 38.05-34.8Q39.05-34.8 39.52-33.45 40-32.1 40-30.7L40-30.7Q40-29.6 39.9-28.73 39.8-27.85 39.6-26.9 39.4-25.95 39.05-24.5L39.05-24.5 35.85-9.85 37.5-11.9Q37.15-8.7 36.95-5.85 36.75-3 36.6-1.25L36.6-1.25Q36.6-0.75 35.72-0.3 34.85 0.15 33.8 0.43 32.75 0.7 32.15 0.7ZM63.5 0.8L63.5 0.8Q60.7 0.8 59.5-1.48 58.3-3.75 58.3-7.85L58.3-7.85Q58.3-11.5 59.37-14.55 60.45-17.6 62.3-19.83 64.15-22.05 66.6-23.28 69.05-24.5 71.8-24.5L71.8-24.5Q73.95-24.5 75.72-23.93 77.5-23.35 78.75-22.75L78.75-22.75 77.3-17.5Q75.95-18.4 74.27-19.15 72.6-19.9 71.17-20.33 69.75-20.75 69.05-20.75L69.05-20.75Q67.65-20.75 66.47-19.38 65.3-18 64.62-15.58 63.95-13.15 63.95-10L63.95-10Q63.95-7.1 64.37-5.6 64.8-4.1 65.75-4.1L65.75-4.1Q66.4-4.1 67.95-5.58 69.5-7.05 71.7-10.5 73.9-13.95 76.35-19.85L76.35-19.85 77.75-15.4Q75.05-9.4 72.6-5.85 70.15-2.3 67.9-0.75 65.65 0.8 63.5 0.8ZM78.95 0.5L75.45 0.5Q74.45 0.5 74.25-0.48 74.05-1.45 74.05-2.55L74.05-2.55Q74.05-3.4 74.27-4.65 74.5-5.9 74.85-7.35 75.2-8.8 75.6-10.2L75.6-10.2 76.7-13.95 75.25-15.25 76.45-22.8Q78.05-23.05 79.27-23.45 80.5-23.85 81.32-24.15 82.15-24.45 82.5-24.45L82.5-24.45Q83.05-24.45 83.05-23.85L83.05-23.85Q83.05-23.6 82.42-21.73 81.8-19.85 81.07-16.95 80.35-14.05 80-10.65L80-10.65 78.95 0.5ZM92.59-1.2L92.59-1.2 91.39-8.75Q93.24-13.55 95.17-17.07 97.09-20.6 99.09-22.55 101.09-24.5 103.14-24.5L103.14-24.5Q104.29-24.5 104.79-23.78 105.29-23.05 105.29-21.95L105.29-21.95Q105.29-20.95 105.07-20.03 104.84-19.1 104.42-18.5 103.99-17.9 103.39-17.9L103.39-17.9Q102.84-17.9 102.17-18.25 101.49-18.6 100.34-18.6L100.34-18.6Q99.59-18.6 98.44-17.05 97.29-15.5 96.07-12.93 94.84-10.35 93.89-7.28 92.94-4.2 92.59-1.2ZM88.39 0.7L88.39 0.7Q87.74 0.7 87.42 0.48 87.09 0.25 87.07-0.7 87.04-1.65 87.29-3.75L87.29-3.75 89.64-24.55 93.14-24.55Q93.89-24.55 94.49-23.45 95.09-22.35 95.09-20.95L95.09-20.95Q95.09-20.3 94.72-18.93 94.34-17.55 93.84-16.03 93.34-14.5 92.94-13.35L92.94-13.35 91.64-9.25 93.49-9.55 92.59-1.2Q92.54-0.7 91.99-0.33 91.44 0.05 90.72 0.28 89.99 0.5 89.34 0.6 88.69 0.7 88.39 0.7ZM142.49 0.5L138.84 0.5Q138.29 0.5 138.04-0.03 137.79-0.55 137.74-1.2 137.69-1.85 137.69-2.25L137.69-2.25Q137.69-2.95 137.79-4.05 137.89-5.15 138.04-6.38 138.19-7.6 138.34-8.5L138.34-8.5 139.19-13.7Q139.34-14.7 139.49-15.58 139.64-16.45 139.64-17.45L139.64-17.45Q139.64-18.2 139.34-18.6 139.04-19 138.54-19L138.54-19Q137.89-19 136.39-17.75 134.89-16.5 133.19-14.2 131.49-11.9 130.09-8.65 128.69-5.4 128.29-1.4L128.29-1.4 127.19-8.75Q129.24-14.55 131.77-18 134.29-21.45 136.79-22.98 139.29-24.5 141.14-24.5L141.14-24.5Q142.69-24.5 143.62-23.95 144.54-23.4 144.99-22.35 145.44-21.3 145.44-19.85L145.44-19.85Q145.44-18.8 145.27-17.63 145.09-16.45 144.89-15.15L144.89-15.15 142.49 0.5ZM109.14 0.7L109.14 0.7Q108.49 0.7 108.17 0.48 107.84 0.25 107.82-0.7 107.79-1.65 108.04-3.75L108.04-3.75 110.39-24.55 113.89-24.55Q114.89-24.55 115.37-23.45 115.84-22.35 115.84-20.95L115.84-20.95Q115.84-20.3 115.47-18.93 115.09-17.55 114.59-16.03 114.09-14.5 113.69-13.35L113.69-13.35 112.39-9.25 114.24-9.55 113.39-1.4Q113.34-0.9 112.82-0.5 112.29-0.1 111.59 0.18 110.89 0.45 110.22 0.58 109.54 0.7 109.14 0.7ZM123.89 0.7L123.89 0.7Q122.99 0.7 122.79 0.35 122.59 0 122.59-0.85L122.59-0.85Q122.59-1.6 122.77-3.3 122.94-5 123.54-8.5L123.54-8.5 124.44-13.65Q124.64-14.65 124.77-15.63 124.89-16.6 124.89-17.6L124.89-17.6Q124.89-18.3 124.64-18.65 124.39-19 123.84-19L123.84-19Q123.14-19 121.59-17.75 120.04-16.5 118.32-14.2 116.59-11.9 115.19-8.65 113.79-5.4 113.39-1.4L113.39-1.4 112.19-8.75Q113.69-13.1 115.59-16.1 117.49-19.1 119.44-20.95 121.39-22.8 123.17-23.65 124.94-24.5 126.24-24.5L126.24-24.5Q127.89-24.5 128.82-23.9 129.74-23.3 130.12-22.33 130.49-21.35 130.49-20.3L130.49-20.3Q130.49-19.05 130.09-17.7 129.69-16.35 129.02-14.43 128.34-12.5 127.54-9.5L127.54-9.5 129.19-10.1 128.29-1.4Q128.24-0.9 127.74-0.5 127.24-0.1 126.52 0.15 125.79 0.4 125.07 0.55 124.34 0.7 123.89 0.7ZM155.34 0.8L155.34 0.8Q152.54 0.8 151.34-1.48 150.14-3.75 150.14-7.85L150.14-7.85Q150.14-11.5 151.21-14.55 152.29-17.6 154.14-19.83 155.99-22.05 158.44-23.28 160.89-24.5 163.64-24.5L163.64-24.5Q165.79-24.5 167.56-23.93 169.34-23.35 170.59-22.75L170.59-22.75 169.14-17.5Q167.79-18.4 166.11-19.15 164.44-19.9 163.01-20.33 161.59-20.75 160.89-20.75L160.89-20.75Q159.49-20.75 158.31-19.38 157.14-18 156.46-15.58 155.79-13.15 155.79-10L155.79-10Q155.79-7.1 156.21-5.6 156.64-4.1 157.59-4.1L157.59-4.1Q158.24-4.1 159.79-5.58 161.34-7.05 163.54-10.5 165.74-13.95 168.19-19.85L168.19-19.85 169.59-15.4Q166.89-9.4 164.44-5.85 161.99-2.3 159.74-0.75 157.49 0.8 155.34 0.8ZM170.79 0.5L167.29 0.5Q166.29 0.5 166.09-0.48 165.89-1.45 165.89-2.55L165.89-2.55Q165.89-3.4 166.11-4.65 166.34-5.9 166.69-7.35 167.04-8.8 167.44-10.2L167.44-10.2 168.54-13.95 167.09-15.25 168.29-22.8Q169.89-23.05 171.11-23.45 172.34-23.85 173.16-24.15 173.99-24.45 174.34-24.45L174.34-24.45Q174.89-24.45 174.89-23.85L174.89-23.85Q174.89-23.6 174.26-21.73 173.64-19.85 172.91-16.95 172.19-14.05 171.84-10.65L171.84-10.65 170.79 0.5ZM185.14 0.4L181.09 0.4Q180.24 0.4 179.89-0.4 179.54-1.2 179.54-2.55L179.54-2.55Q179.54-3.55 179.69-4.8L179.69-4.8 182.84-34 192.14-34Q198.29-34 201.34-31.95 204.39-29.9 204.39-25.15L204.39-25.15Q204.39-22.25 203.06-19.85 201.74-17.45 199.66-15.7 197.59-13.95 195.24-13 192.89-12.05 190.84-12.05L190.84-12.05Q190.29-12.05 189.61-12.4 188.94-12.75 188.46-13.3 187.99-13.85 187.99-14.4L187.99-14.4Q187.99-14.95 188.34-15.18 188.69-15.4 189.09-15.45L189.09-15.45Q191.34-15.9 193.31-17.03 195.29-18.15 196.51-20.03 197.74-21.9 197.74-24.5L197.74-24.5Q197.74-26.75 196.66-28 195.59-29.25 193.54-29.75 191.49-30.25 188.44-30.25L188.44-30.25 185.14 0.4ZM212.53 0.65L212.53 0.65Q210.58 0.65 209.51-0.43 208.43-1.5 208.43-3.65L208.43-3.65Q208.43-4.4 208.46-5.15 208.48-5.9 208.61-6.95 208.73-8 208.93-9.65L208.93-9.65 210.83-24.55 214.33-24.55Q215.18-24.55 215.46-23.58 215.73-22.6 215.73-21.2L215.73-21.2Q215.73-20.15 215.58-18.45 215.43-16.75 215.13-14.7L215.13-14.7 214.53-10.6Q214.33-9.2 214.26-8.1 214.18-7 214.18-6.3L214.18-6.3Q214.18-5.3 214.41-4.78 214.63-4.25 215.28-4.25L215.28-4.25Q216.03-4.25 217.18-5.35 218.33-6.45 219.61-8.25 220.88-10.05 221.98-12.13 223.08-14.2 223.78-16.15 224.48-18.1 224.48-19.5L224.48-19.5Q224.48-20.65 224.21-21.43 223.93-22.2 223.98-22.7L223.98-22.7Q223.98-23.15 224.56-23.5 225.13-23.85 225.93-24.08 226.73-24.3 227.53-24.43 228.33-24.55 228.78-24.55L228.78-24.55Q229.63-24.55 230.11-23.55 230.58-22.55 230.38-20.7L230.38-20.7 228.03 0.5 224.53 0.5Q223.93 0.5 223.58-0.13 223.23-0.75 223.11-1.55 222.98-2.35 222.98-2.75L222.98-2.75Q222.98-3.9 223.31-5.25 223.63-6.6 224.26-8.7 224.88-10.8 225.78-14.1L225.78-14.1 225.78-13.25Q223.83-8.15 221.48-5.1 219.13-2.05 216.83-0.7 214.53 0.65 212.53 0.65ZM241.53 0.7L238.03 0.7Q237.13 0.7 236.63-0.4 236.13-1.5 236.18-2.95L236.18-2.95Q236.23-4.65 236.48-7 236.73-9.35 236.98-11.65L236.98-11.65 238.38-23.45Q238.68-25.7 238.53-27.45 238.38-29.2 238.13-30.55 237.88-31.9 237.88-32.85L237.88-32.85Q237.88-33.4 238.76-33.83 239.63-34.25 240.78-34.52 241.93-34.8 242.73-34.8L242.73-34.8Q243.58-34.8 244.23-33.58 244.88-32.35 244.88-30.75L244.88-30.75Q244.88-30.4 244.78-28.8 244.68-27.2 244.38-25.15L244.38-25.15 242.78-13.65Q242.28-10.05 242.08-6.48 241.88-2.9 241.53 0.7L241.53 0.7ZM255.98 0.8L255.98 0.8Q252.18 0.8 250.01-0.38 247.83-1.55 247.83-3.55L247.83-3.55Q247.83-4.45 248.11-5.23 248.38-6 248.93-6L248.93-6Q249.13-6 249.38-5.9 249.63-5.8 250.33-5.35L250.33-5.35Q251.33-4.7 252.56-4.15 253.78-3.6 255.06-3.28 256.33-2.95 257.43-2.95L257.43-2.95Q259.03-2.95 259.76-3.73 260.48-4.5 260.48-5.8L260.48-5.8Q260.48-6.75 259.91-7.38 259.33-8 258.08-8.8L258.08-8.8 254.98-10.8Q253.03-12.05 251.71-13.48 250.38-14.9 250.38-17.2L250.38-17.2Q250.38-20.45 252.88-22.48 255.38-24.5 259.93-24.5L259.93-24.5Q263.13-24.5 264.63-23.85 266.13-23.2 266.13-21.6L266.13-21.6Q266.13-20.35 265.76-19.5 265.38-18.65 264.73-18.65L264.73-18.65Q264.53-18.65 264.21-18.75 263.88-18.85 263.63-19L263.63-19Q263.23-19.25 262.38-19.7 261.53-20.15 260.48-20.53 259.43-20.9 258.28-20.9L258.28-20.9Q257.13-20.9 256.41-20.23 255.68-19.55 255.68-18.4L255.68-18.4Q255.68-17.45 256.28-16.8 256.88-16.15 258.28-15.45L258.28-15.45 261.53-13.95Q263.58-13 264.86-11.73 266.13-10.45 266.13-7.95L266.13-7.95Q266.13-5 264.71-3.05 263.28-1.1 260.96-0.15 258.63 0.8 255.98 0.8ZM278.33 0.8L278.33 0.8Q274.48 0.8 272.38-1.63 270.28-4.05 270.28-8.3L270.28-8.3Q270.28-11.85 271.28-14.8 272.28-17.75 274.08-19.95 275.88-22.15 278.3-23.35 280.73-24.55 283.58-24.55L283.58-24.55Q286.98-24.55 288.78-23.1 290.58-21.65 290.58-18.95L290.58-18.95Q290.58-16.2 288.75-14.15 286.93-12.1 283.5-10.65 280.08-9.2 275.33-8.2L275.33-8.2 274.68-11.2Q277.43-11.55 279.73-12.4 282.03-13.25 283.43-14.68 284.83-16.1 284.83-18.05L284.83-18.05Q284.83-19.4 284.3-20.1 283.78-20.8 282.43-20.8L282.43-20.8Q280.38-20.8 278.95-19.3 277.53-17.8 276.8-15.4 276.08-13 276.08-10.3L276.08-10.3Q276.08-6.65 277.2-5.43 278.33-4.2 280.53-4.2L280.53-4.2Q282.83-4.2 284.55-4.93 286.28-5.65 287.53-6.45L287.53-6.45Q287.93-6.7 288.23-6.85 288.53-7 288.73-7L288.73-7Q288.98-7 289.13-6.8 289.28-6.6 289.28-6.35L289.28-6.35Q289.28-5.45 288.48-4.25 287.68-3.05 286.2-1.9 284.73-0.75 282.73 0.03 280.73 0.8 278.33 0.8Z" opacity="1" transform="matrix(1,0,0,1,0,0)" fill="#5ebc67" class="slogan-text-1" data-fill-palette-color="secondary" id="text-1"></path></svg></g></svg></g></svg></g></svg></g><g></g></svg></g><defs></defs></svg><rect width="395.52" height="186.59899922865702" fill="none" stroke="none" visibility="hidden"></rect></g></svg></g></svg>